<?xml version="1.0" encoding="UTF-8" standalone="no"?>
<!-- Created with Inkscape (http://www.inkscape.org/) -->

<svg
   xmlns:svg="http://www.w3.org/2000/svg"
   xmlns="http://www.w3.org/2000/svg"
   version="1.1"
   width="16"
   height="13"
   id="svg2">
  <defs
     id="defs4" />
  <g
     transform="translate(-169.14285,-405.86218)"
     id="layer1">
    <path
       d="m 0,2 0,4 0,5 0.5625,0 C 0.79561566,12.139208 1.7918771,13 3,13 4.2081229,13 5.2043843,12.139208 5.4375,11 l 0.125,0 c 0.2331157,1.139208 1.2293771,2 2.4375,2 1.2081229,0 2.204384,-0.860792 2.4375,-2 l 0.125,0 c 0.233116,1.139208 1.229377,2 2.4375,2 1.208123,0 2.204384,-0.860792 2.4375,-2 L 16,11 16,6 15,6 15,3.5 C 15,2.6715729 14.328427,2 13.5,2 12.671573,2 12,2.6715729 12,3.5 L 12,6 10,6 10,5 8,5 8,6 6,6 6,2 0,2 z M 1,3 4,3 4,6 1,6 1,3 z"
       transform="translate(169.14285,405.86218)"
       id="path2830"
       style="fill:#000000;fill-opacity:1;stroke:none" />
    <path
       d="m 11.5,1 c -0.176798,0 -0.317344,0.1115043 -0.40625,0.25 -0.08674,-0.072409 -0.190672,-0.125 -0.3125,-0.125 -0.276142,0 -0.5,0.2238576 -0.5,0.5 0,0.2425575 0.177093,0.4543999 0.40625,0.5 0.0456,0.2291571 0.257443,0.40625 0.5,0.40625 0.207107,0 0.392846,-0.1330425 0.46875,-0.3125 0.05324,0.019326 0.127582,0.0625 0.1875,0.0625 0.276142,0 0.5,-0.2238576 0.5,-0.5 0,-0.2294967 -0.164252,-0.409966 -0.375,-0.46875 C 11.892846,1.1330425 11.707107,1 11.5,1 z"
       transform="translate(169.14285,405.86218)"
       id="path2857"
       style="fill:#000000;fill-opacity:1;stroke:none" />
    <path
       d="m 178.79688,406.31856 c -0.22168,-0.0594 -0.43851,0.0525 -0.54984,0.2409 -0.064,-0.11082 -0.15823,-0.20416 -0.29159,-0.2399 -0.26674,-0.0715 -0.54091,0.0868 -0.61238,0.35356 -0.0331,0.12356 -0.0136,0.22834 0.0399,0.3342 -0.19299,0.0269 -0.36957,0.17185 -0.42317,0.3719 -0.0715,0.26673 0.0868,0.5409 0.35355,0.61237 0.18541,0.0497 0.37337,-0.0268 0.49539,-0.15843 0.0613,0.0644 0.12504,0.13056 0.21722,0.15526 0.26673,0.0715 0.5409,-0.0868 0.61237,-0.35356 0.0296,-0.11059 8.6e-4,-0.23603 -0.0399,-0.3342 0.24494,0.0322 0.48632,-0.12462 0.552,-0.36973 0.0715,-0.26673 -0.0868,-0.5409 -0.35355,-0.61237 z"
       id="path2859"
       style="fill:#000000;fill-opacity:1;stroke:none" />
  </g>
</svg>
